<svg xmlns="http://www.w3.org/2000/svg" viewBox="0 0 18.42 19.2"><defs><style>.cls-1{fill:#236852;fill-rule:evenodd;}</style></defs><title>Asset 9</title><g id="Layer_2" data-name="Layer 2"><g id="Layer_1-2" data-name="Layer 1"><path class="cls-1" d="M9.68,9.6a.76.76,0,0,0,.23.63L17,17.36a.81.81,0,0,0,1.14,0,.8.8,0,0,0,0-1.14L11.56,9.6,18.18,3a.79.79,0,0,0,0-1.13.8.8,0,0,0-1.14,0L9.91,9a.76.76,0,0,0-.23.63Zm-9.45.63L9,19a.81.81,0,1,0,1.14-1.14L1.88,9.6l8.24-8.23a.81.81,0,0,0,0-1.14A.81.81,0,0,0,9,.23L.23,9A.79.79,0,0,0,0,9.6a.76.76,0,0,0,.23.63Z"/></g></g></svg>