<svg xmlns="http://www.w3.org/2000/svg" viewBox="0 0 18.42 19.2"><defs><style>.cls-1{fill:#236852;fill-rule:evenodd;}</style></defs><title>Asset 8</title><g id="Layer_2" data-name="Layer 2"><g id="Layer_1-2" data-name="Layer 1"><path class="cls-1" d="M8.74,9.6A.77.77,0,0,0,8.51,9L1.38,1.85a.8.8,0,0,0-1.14,0A.79.79,0,0,0,.24,3L6.86,9.6.24,16.22a.8.8,0,0,0,0,1.14.81.81,0,0,0,1.14,0l7.13-7.13a.76.76,0,0,0,.23-.63ZM18.19,9,9.44.23A.81.81,0,0,0,8.3.23a.83.83,0,0,0,0,1.15L16.54,9.6,8.3,17.83A.81.81,0,0,0,9.44,19l8.75-8.74a.79.79,0,0,0,.23-.63A.77.77,0,0,0,18.19,9Z"/></g></g></svg>