<svg xmlns="http://www.w3.org/2000/svg" viewBox="0 0 15.73 19.38"><defs><style>.cls-1{fill:#666;}</style></defs><title>Asset 2</title><g id="Layer_2" data-name="Layer 2"><g id="Layer_1-2" data-name="Layer 1"><path class="cls-1" d="M12.25,1.66H8.6V0H3.65V1.66H0V4.29H12.25ZM5,1.31H7.29v.35H5Z"/><path class="cls-1" d="M11.09,9.38l.24-3.78H.92l.83,12.69h5a5.65,5.65,0,0,1,4.34-8.91Z"/><path class="cls-1" d="M11.38,10.68A4.35,4.35,0,1,0,15.73,15a4.35,4.35,0,0,0-4.35-4.35Zm2.37,5.8-.93.92L11.38,16,9.93,17.4,9,16.48,10.45,15,9,13.59l.92-.93,1.45,1.45,1.44-1.45.93.93L12.3,15Z"/></g></g></svg>